<svg width="17" height="15" viewBox="0 0 17 15" fill="none" xmlns="http://www.w3.org/2000/svg">
<g clip-path="url(#clip0_440_77)">
<path d="M16.5651 13.4849L12.4378 9.9114C12.3642 9.84769 12.2682 9.81445 12.1659 9.81445H11.8363C12.9337 8.78673 13.6056 7.41551 13.6056 5.90578C13.6056 2.72289 10.6269 0.14389 6.95076 0.14389C3.27459 0.14389 0.295898 2.72289 0.295898 5.90578C0.295898 9.08867 3.27459 11.6677 6.95076 11.6677C8.69446 11.6677 10.2782 11.0859 11.4652 10.1386V10.4211C11.4652 10.5098 11.5068 10.5929 11.5772 10.6566L15.7045 14.2301C15.8548 14.3602 16.098 14.3602 16.2484 14.2301L16.5651 13.9558C16.7155 13.8256 16.7155 13.6151 16.5651 13.4849ZM6.95076 10.7812C3.83769 10.7812 1.31972 8.60113 1.31972 5.90578C1.31972 3.21043 3.83769 1.03034 6.95076 1.03034C10.0638 1.03034 12.5818 3.21043 12.5818 5.90578C12.5818 8.60113 10.0638 10.7812 6.95076 10.7812Z" fill="#C4C4C4"/>
</g>
<defs>
<clipPath id="clip0_440_77">
<rect width="16.3812" height="14.1831" fill="white" transform="translate(0.295898 0.14389)"/>
</clipPath>
</defs>
</svg>
